<?xml version="1.0" encoding="UTF-8" standalone="no"?><!DOCTYPE svg PUBLIC "-//W3C//DTD SVG 1.1//EN" "http://www.w3.org/Graphics/SVG/1.1/DTD/svg11.dtd"><svg width="100%" height="100%" viewBox="0 0 4961 3508" version="1.1" xmlns="http://www.w3.org/2000/svg" xmlns:xlink="http://www.w3.org/1999/xlink" xml:space="preserve" xmlns:serif="http://www.serif.com/" style="fill-rule:evenodd;clip-rule:evenodd;stroke-linejoin:round;stroke-miterlimit:2;"><g><g id="outputsvg-lS6OrvSASCl6U6Fsk8mypA"><g><path id="outputsvg-pV0t5v02r" d="M1249.938,3340.963c-113.191,-13.223 -220.036,-68.761 -287.21,-148.63c-50.249,-60.298 -76.695,-121.654 -87.803,-203.639c-23.273,-177.721 69.819,-347.508 231.143,-420.501c127.473,-58.183 293.557,-57.654 409.922,0.529c40.199,20.099 90.976,55.538 113.191,78.811c15.339,16.397 15.339,16.926 5.289,25.918c-5.818,5.289 -32.265,30.678 -59.24,56.067l-48.133,46.546l-29.62,-24.331c-38.612,-31.207 -63.472,-43.901 -112.663,-56.596c-69.29,-17.455 -123.77,-12.165 -190.416,19.57c-123.241,58.711 -169.787,212.102 -104.2,341.161c37.554,74.579 131.175,125.886 230.085,126.415c33.323,0 106.315,-16.926 124.828,-29.091c12.165,-7.934 12.165,-8.992 12.165,-118.481c0,-95.737 1.058,-111.076 8.463,-113.72c4.76,-1.587 42.315,-3.174 84.629,-3.174l75.637,0l1.587,160.266c1.587,186.713 8.992,166.614 -70.877,206.283c-58.711,29.091 -121.654,48.133 -186.713,56.067c-52.364,6.347 -67.703,6.347 -120.068,0.529Z" style="fill:#07274a;fill-rule:nonzero;"/><path id="outputsvg-p8qFW8gfz" d="M1996.79,3330.384l0,-283.508l-16.926,-26.447c-8.992,-14.281 -44.959,-72.464 -79.869,-129.059c-159.737,-260.763 -209.986,-343.806 -209.986,-349.095c0,-3.703 31.736,-5.289 98.381,-4.231l98.91,1.587l99.968,166.614c55.009,91.505 102.084,166.614 104.729,166.614c5.289,0 26.976,-34.91 133.291,-212.102c67.174,-112.134 71.406,-117.423 88.861,-120.596c21.157,-3.703 174.548,-4.231 174.548,-1.058c0,2.116 -151.275,251.243 -262.879,432.137l-43.901,71.406l0,287.739l-185.126,0Z" style="fill:#07274a;fill-rule:nonzero;"/><path id="outputsvg-paRcJMrg6" d="M2404.068,3328.268c0,-1.058 12.165,-27.504 26.976,-59.24c23.802,-51.306 250.714,-550.089 307.838,-677.562l22.215,-49.191l83.042,-1.058c46.017,-0.529 88.861,-1.058 95.208,-1.058c10.579,-0.529 22.744,23.802 113.72,226.912c135.407,301.491 210.515,467.047 235.375,517.824c11.108,23.273 20.099,42.843 20.099,43.901c0,0.529 -44.959,1.587 -99.439,1.587l-99.439,0l-71.935,-169.258l-363.905,0l-6.876,12.165c-4.231,6.347 -21.157,44.43 -38.083,84.629l-30.678,72.464l-97.323,0c-52.893,0 -96.795,-1.058 -96.795,-2.116Zm571.247,-314.186c0,-8.992 -115.307,-272.929 -120.068,-274.516c-3.174,-1.058 -95.737,204.697 -121.654,272.4c-2.116,4.76 23.802,6.347 119.539,6.347c67.174,0 122.183,-2.116 122.183,-4.231Z" style="fill:#07274a;fill-rule:nonzero;"/><path id="outputsvg-p1EVJc07i2" d="M3387.881,3330.384c5.372,2.015 -0.894,-779.633 0.22,-790.917l152.112,-2.481l23.273,28.033c13.223,14.81 97.852,116.894 188.829,226.912c90.447,109.489 168.2,202.052 172.432,205.226c6.876,5.818 7.934,-22.744 7.934,-226.912l0,-233.259l185.126,0l0,793.398l-151.275,0l-187.771,-227.441c-143.341,-173.49 -189.887,-226.912 -197.821,-225.854c-10.579,1.058 -10.579,5.289 -12.165,227.441l-1.058,225.854l-179.837,0Z" style="fill:#07274a;fill-rule:nonzero;"/><path id="outputsvg-pqyqEwb53" d="M2345.885,2353.975c-80.398,-16.926 -136.464,-44.43 -272.4,-133.82c-88.861,-58.711 -235.375,-132.762 -322.649,-163.969c-188.3,-67.174 -379.773,-94.679 -620.437,-89.39c-102.084,2.645 -106.844,2.116 -97.852,-6.876c11.637,-11.108 79.34,-28.033 174.548,-42.843c99.968,-15.339 364.434,-17.455 452.237,-3.174c168.2,27.504 288.268,68.232 483.973,163.44c158.68,77.753 203.11,90.447 313.657,90.976c107.902,0 132.233,-8.992 277.16,-104.729c148.63,-97.852 248.598,-149.159 391.939,-200.994c206.812,-74.579 373.426,-101.555 698.19,-113.72c350.153,-13.223 412.038,-22.744 512.535,-79.34c53.422,-30.149 72.464,-32.794 85.687,-13.223c26.447,40.199 -30.149,148.101 -103.142,197.292c-35.438,23.273 -78.282,41.257 -117.952,48.662c-13.752,2.645 -116.365,8.463 -227.441,13.223c-277.16,11.108 -373.426,18.513 -506.717,40.728c-118.481,19.042 -287.739,64.001 -346.45,92.034c-15.339,6.876 -29.091,12.694 -31.736,12.694c-7.934,0 -140.167,68.232 -183.01,94.679c-24.331,15.339 -49.191,30.678 -55.009,33.852c-9.521,5.818 -52.893,35.438 -115.836,79.869c-17.984,12.694 -66.645,40.728 -98.381,56.596c-21.157,10.579 -53.951,20.628 -88.332,28.033c-47.075,10.579 -154.977,10.579 -202.581,0Z" style="fill:#07274a;fill-rule:nonzero;"/><path id="outputsvg-pcC36arbV" d="M2449.556,2020.748c-231.672,-114.778 -452.766,-180.895 -722.521,-214.746c-86.216,-10.579 -411.509,-8.992 -499.841,2.645c-147.043,19.57 -305.723,52.364 -415.212,85.687c-135.407,41.257 -169.787,44.959 -211.573,23.802c-55.538,-28.033 -81.456,-72.464 -62.943,-106.315c20.628,-38.612 217.92,-103.142 443.774,-144.398c563.313,-103.142 1056.277,-3.703 1442.398,292.499c66.645,50.777 129.588,105.786 120.596,105.786c-2.645,0 -45.488,-20.099 -94.679,-44.959Z" style="fill:#07274a;fill-rule:nonzero;"/><path id="outputsvg-p44dxH68y" d="M2561.689,2026.567c-18.513,-31.207 -23.273,-276.103 -7.405,-362.318c22.744,-123.77 50.249,-209.986 101.555,-317.359c60.827,-126.944 123.241,-216.333 218.449,-313.657c161.853,-165.556 332.169,-267.111 534.221,-318.417c61.356,-15.339 142.812,-29.091 174.548,-29.091c19.57,0 22.215,1.058 19.042,9.521c-1.587,4.76 -8.992,32.265 -15.868,60.298c-12.165,49.72 -17.455,95.737 -29.091,242.251c-13.223,167.671 -53.422,281.921 -132.762,379.773c-51.306,62.943 -170.845,146.514 -308.896,216.333c-12.694,6.347 -59.769,31.736 -115.836,66.645c-5.818,3.703 -23.273,14.81 -39.141,24.86c-15.868,10.05 -34.91,21.686 -42.843,25.918c-56.596,30.678 -187.771,145.456 -233.788,204.697c-12.165,15.868 -23.273,28.033 -24.331,26.447c-3.703,-3.703 33.852,-80.927 57.125,-119.01c51.306,-81.456 114.778,-151.803 187.771,-207.87c34.381,-26.447 120.068,-82.513 215.275,-141.225c249.656,-153.919 334.814,-291.97 350.682,-567.544c4.231,-72.464 8.463,-68.761 -53.951,-49.72c-66.645,20.628 -159.209,61.356 -209.457,92.034c-80.398,49.72 -110.018,70.348 -158.68,109.489c-241.722,194.118 -420.501,531.048 -469.692,883.316c-12.694,91.505 -12.694,90.976 -16.926,84.629Z" style="fill:#07274a;fill-rule:nonzero;"/><path id="outputsvg-pYmwqIUrf" d="M2468.597,1856.25c-84.629,-101.555 -156.035,-251.772 -187.242,-395.112c-10.579,-47.075 -11.637,-68.761 -11.637,-177.721c0,-108.96 1.587,-131.175 12.165,-179.837c24.331,-113.72 66.645,-224.267 124.828,-327.938c39.67,-70.348 67.703,-112.134 175.076,-257.59c110.018,-149.159 153.919,-215.804 191.473,-293.557c18.513,-38.612 33.323,-61.885 38.083,-61.885c15.868,0 87.803,106.844 132.233,195.176c49.72,98.91 96.266,260.763 110.018,382.418l4.231,40.728l-111.605,84.1l-5.818,-64.53c-7.405,-81.456 -24.86,-171.374 -44.959,-234.317c-21.157,-65.588 -59.769,-152.861 -68.761,-153.919c-4.231,-0.529 -30.678,33.852 -59.24,76.695c-28.562,42.843 -68.761,100.497 -88.861,128.002c-182.482,247.011 -266.053,446.419 -286.152,686.025c-12.165,147.572 10.05,297.789 72.993,487.675c15.868,47.604 28.033,87.803 26.976,88.861c-1.587,1.058 -11.637,-9.521 -23.802,-23.273Z" style="fill:#07274a;fill-rule:nonzero;"/><path id="outputsvg-pD4Htf4zF" d="M2225.818,1648.38c-20.099,-37.025 -106.315,-163.969 -136.993,-200.994c-51.835,-63.472 -153.919,-158.151 -215.275,-199.936c-104.2,-70.877 -213.16,-116.894 -333.756,-141.225c-70.348,-13.752 -131.704,-21.157 -139.109,-16.926c-2.645,1.587 6.347,26.447 20.628,55.009c22.744,47.075 46.546,120.068 40.199,125.886c-1.058,1.058 -19.57,-0.529 -40.728,-4.231l-38.083,-6.347l-17.455,-46.017c-21.686,-57.654 -58.183,-119.01 -98.91,-166.085c-17.455,-19.57 -31.207,-37.554 -31.207,-39.67c0,-7.934 95.208,-17.455 166.614,-17.455c194.118,1.058 387.707,73.522 554.85,208.399c108.96,87.803 213.16,246.482 264.995,403.575c19.57,58.711 21.157,77.224 4.231,46.017Z" style="fill:#07274a;fill-rule:nonzero;"/><path id="outputsvg-p3HLNzmco" d="M3200.11,1653.67c13.223,-14.281 107.902,-60.298 157.622,-76.166c79.34,-25.918 124.828,-31.736 241.722,-31.207c170.316,0.529 460.171,4.231 460.171,5.818c0,3.703 -74.05,48.662 -80.398,48.662c-4.231,0 -9.521,2.116 -12.165,4.76c-3.174,2.645 -24.331,8.992 -47.604,14.281c-37.025,7.934 -55.538,8.463 -158.68,4.231c-165.027,-6.876 -324.764,-5.818 -385.591,2.645c-28.562,3.703 -80.927,13.752 -115.307,22.215c-34.91,8.463 -64.53,15.339 -66.117,15.339c-1.587,0 1.058,-4.76 6.347,-10.579Z" style="fill:#07274a;fill-rule:nonzero;"/><path id="outputsvg-pQUT8gkmo" d="M1967.699,1603.421c-178.779,-87.803 -349.095,-143.87 -502.485,-165.027c-119.539,-16.397 -481.857,25.389 -507.775,32.794c-26.447,7.405 -51.306,13.223 -55.009,13.223c-13.223,0 25.389,-35.967 70.877,-66.117c140.167,-93.092 342.748,-117.423 554.85,-66.645c138.051,33.323 288.268,105.786 419.443,202.581c38.083,28.033 108.431,88.861 102.084,88.332c-1.587,-0.529 -38.083,-17.984 -81.984,-39.141Z" style="fill:#07274a;fill-rule:nonzero;"/><path id="outputsvg-pCkKyDxIU" d="M3754.431,1480.709c-9.521,-1.058 -17.455,-3.703 -17.455,-5.289c0,-1.587 7.934,-13.752 17.984,-27.504c25.984,-31.671 53.551,-102.365 67.858,-151.712c9.112,-31.427 7.275,-52.445 10.856,-45.204c5.429,10.982 -273.911,62.292 -277.593,60.451l8.992,-20.628c4.76,-11.108 12.694,-30.149 16.926,-41.786c4.76,-11.637 10.579,-23.802 13.223,-26.976c2.116,-3.174 26.447,-7.405 52.893,-8.992c58.711,-4.231 148.101,-23.802 197.292,-43.372c26.976,-11.108 36.496,-12.694 39.67,-7.934c2.116,3.703 5.818,24.86 7.405,47.075c6.876,76.166 -13.223,154.977 -59.24,233.788c-26.976,45.488 -24.86,44.959 -78.811,38.083Z" style="fill:#07274a;fill-rule:nonzero;"/><path id="outputsvg-p6gV7AtmR" d="M1908.987,1077.663l-42.843,-31.207l12.165,-62.943c22.744,-115.836 30.149,-200.465 26.447,-311.012c-1.587,-55.009 -4.76,-113.191 -6.347,-129.059l-3.703,-28.562l20.628,3.174c29.62,4.76 119.539,50.777 170.845,87.274c79.34,57.125 201.523,190.416 201.523,220.036c0,6.347 -8.463,29.091 -18.513,50.249l-19.042,39.141l-23.802,-38.612c-13.223,-21.157 -39.67,-57.125 -58.711,-79.869c-41.786,-49.72 -125.357,-121.125 -142.283,-121.125c-3.703,0 -6.876,25.389 -8.992,75.637c-2.116,41.257 -8.463,104.729 -14.281,140.696c-13.752,84.1 -42.843,217.391 -47.075,217.391c-2.116,0 -22.744,-14.281 -46.017,-31.207Z" style="fill:#07274a;fill-rule:nonzero;"/></g></g></g></svg>